<svg xmlns="http://www.w3.org/2000/svg" width="54.145" height="54.145" viewBox="0 0 54.145 54.145">
  <g id="Group_5238" data-name="Group 5238" transform="translate(20952.92 19518.438)">
    <path id="Path_11464" data-name="Path 11464" d="M114.662,239.441a.07.07,0,0,0,.012.019l.047-.019A.482.482,0,0,1,114.662,239.441ZM140.1,226.762c-.01-.026-.626-1.556-.749-1.876l-.01,0a41.359,41.359,0,0,0-2.184-4.362,33.811,33.811,0,0,0-5.746,1.594c-.028.01-1.558.626-1.878.751l0,.01a40.69,40.69,0,0,0-4.6,2.326,40.486,40.486,0,0,0,1.476,4.75c.019.049.786,1.925.805,1.975l0,0a33.561,33.561,0,0,0,2.886,5.284,41.068,41.068,0,0,0,4.5-1.417c.049-.016,1.928-.786,1.975-.805l0,0a33.217,33.217,0,0,0,5.065-2.737A34.066,34.066,0,0,0,140.1,226.762Z" transform="translate(-21059.342 -19720.332)" fill="#f9d342"/>
    <path id="Path_11465" data-name="Path 11465" d="M73.468,48.1a25.37,25.37,0,1,0,25.37,25.37A25.371,25.371,0,0,0,73.468,48.1Zm22.065,17.3a3.305,3.305,0,0,1-1.2,2.559v0l-.012.007a3.323,3.323,0,1,1,1.217-2.568Zm-5.487-5.9.012.012a.078.078,0,0,1,.012.014q.745.787,1.4,1.636l-.158.028a4.215,4.215,0,0,0-1.69.749.552.552,0,0,0-.087.066c-.292-.414-.6-.814-.915-1.2l-.014-.016c-4.583-4.8-11.654-7.692-18.287-6.861a.157.157,0,0,0,0-.033c-.01-.052-.026-.116-.045-.186a3.679,3.679,0,0,0-.256-.746s0,0,0,0c-.038-.082-.078-.162-.12-.243v0a3.458,3.458,0,0,0-.125-.391c-.007-.019-.014-.038-.021-.052s-.014-.038-.019-.049c-.021-.052-.047-.1-.07-.148,0,0,0-.012-.007-.016A21.623,21.623,0,0,1,90.046,59.5Zm-23.915-8.1a3.325,3.325,0,1,1-3.326,3.323A3.325,3.325,0,0,1,66.131,51.393Zm-10.195,9.2c.014-.021.031-.042.045-.064a19.328,19.328,0,0,1,5.894-5.75,0,0,0,0,0,0,0c0,.075,0,.15.01.226a4.219,4.219,0,0,0,.5,1.742c.033.059.064.116.1.17a19.439,19.439,0,0,0-4.616,4.317l0,0a21.665,21.665,0,0,0-3.783,15.262.251.251,0,0,0-.059.01h0l-.146.028a.613.613,0,0,1-.078.019c-.049.014-.1.026-.16.04-.12.036-.568.153-.675.181l-.028.007c-.021.007-.042.012-.064.019l-.122.036c-.1.028-.191.059-.268.082-.059.021-.111.04-.15.057s-.073.033-.111.052l-.054.023A21.63,21.63,0,0,1,55.936,60.59ZM54.693,83.943l-.047.019a.1.1,0,0,1-.012-.019,3.319,3.319,0,1,1,.12,0A.523.523,0,0,1,54.693,83.943ZM77.644,94.5h0a21.606,21.606,0,0,1-22.406-9.571,4.353,4.353,0,0,0,1.869-.657,19.728,19.728,0,0,0,19.869,8.4,4.027,4.027,0,0,0,.243.939c.012.033.023.066.036.1a4.336,4.336,0,0,0,.412.784A.043.043,0,0,0,77.644,94.5Zm.118-4.747a2.371,2.371,0,0,0-.708,1.674.91.91,0,0,0,.007.116l-.026-.014A23.367,23.367,0,0,1,69.1,83.915c-4.55.93-8.258.687-11.056-.4a4.409,4.409,0,0,0,.946-1.671,18.014,18.014,0,0,0,8.987.334,39.956,39.956,0,0,1-2.587-5.061l.007,0c-.12-.294-.758-1.864-.777-1.9A43.306,43.306,0,0,1,63.2,70.8a18.5,18.5,0,0,0-5.981,6.207,4.319,4.319,0,0,0-1.794-.673A20.323,20.323,0,0,1,62.743,68.8c-.883-4.468-.631-8.114.44-10.873a4.4,4.4,0,0,0,1.671.944,17.926,17.926,0,0,0-.358,8.86,43.5,43.5,0,0,1,4.279-2.119v0c.047-.019,1.881-.76,1.93-.781a41.407,41.407,0,0,1,5.272-1.617,18.581,18.581,0,0,0-6.289-6.1,4.317,4.317,0,0,0,.673-1.8,20.511,20.511,0,0,1,7.645,7.481,25.581,25.581,0,0,1,10.693.066,4.221,4.221,0,0,0-.791,2.041,28.442,28.442,0,0,0-8.754-.184c.666,1.2,1.311,2.512,1.93,3.943h0c.016.049.758,1.883.781,1.933a41.086,41.086,0,0,1,1.53,4.917,26.469,26.469,0,0,0,6.323-6.638c.016-.023.028-.045.042-.066a1.124,1.124,0,0,0,.172.207h0a2.35,2.35,0,0,0,1.716.626,23.494,23.494,0,0,1-7.784,8.069,25.444,25.444,0,0,1-.1,11.089l-.007.023c-.031-.035-.066-.068-.1-.1l-.007,0a2.761,2.761,0,0,0-1.283-.6l-.007,0h0a1.877,1.877,0,0,0-.633-.019c.007-.033.014-.068.021-.1a28.2,28.2,0,0,0,.2-9.072,40.174,40.174,0,0,1-4.731,2.394l0-.01-1.9.777q-2.115.8-4.049,1.318a26.215,26.215,0,0,0,6.579,6.23.369.369,0,0,0,.04.026A.988.988,0,0,0,77.762,89.754Zm3.507,5.828a3.325,3.325,0,1,1,3.326-3.326A3.323,3.323,0,0,1,81.269,95.582Zm4.157-4.138a4.2,4.2,0,0,0-.805-1.817c5.724-4.611,9.255-12.654,8.067-20.034a4.223,4.223,0,0,0,1.838-.692C96.049,77.248,92.056,86.362,85.426,91.444Z" transform="translate(-20999.316 -19564.834)" fill="#f9d342"/>
    <g id="Group_4899" data-name="Group 4899" transform="translate(-20952.92 -19518.438)">
      <path id="Path_11466" data-name="Path 11466" d="M57.838,32.572A25.266,25.266,0,1,1,32.572,57.838,25.266,25.266,0,0,1,57.838,32.572m0-1.806A27.072,27.072,0,1,0,84.91,57.838,27.1,27.1,0,0,0,57.838,30.766Z" transform="translate(-30.766 -30.766)" fill="#f9d342"/>
    </g>
  </g>
</svg>
