<svg width="17" height="17" viewBox="0 0 17 17" fill="none" xmlns="http://www.w3.org/2000/svg">
<path d="M15.75 9C15.5511 9 15.3603 9.07902 15.2197 9.21967C15.079 9.36032 15 9.55109 15 9.75V12.9097C14.9994 13.4639 14.779 13.9953 14.3871 14.3871C13.9953 14.779 13.4639 14.9994 12.9097 15H3.59025C3.03606 14.9994 2.50475 14.779 2.11288 14.3871C1.72101 13.9953 1.5006 13.4639 1.5 12.9097V9.75C1.5 9.55109 1.42098 9.36032 1.28033 9.21967C1.13968 9.07902 0.948912 9 0.75 9C0.551088 9 0.360322 9.07902 0.21967 9.21967C0.0790176 9.36032 0 9.55109 0 9.75V12.9097C0.000992689 13.8616 0.379569 14.7743 1.05266 15.4473C1.72574 16.1204 2.63836 16.499 3.59025 16.5H12.9097C13.8616 16.499 14.7743 16.1204 15.4473 15.4473C16.1204 14.7743 16.499 13.8616 16.5 12.9097V9.75C16.5 9.55109 16.421 9.36032 16.2803 9.21967C16.1397 9.07902 15.9489 9 15.75 9Z" fill="#666666"/>
<path d="M4.28031 5.78009L7.50006 2.56034V11.9998C7.50006 12.1988 7.57908 12.3895 7.71973 12.5302C7.86038 12.6708 8.05115 12.7498 8.25006 12.7498C8.44897 12.7498 8.63974 12.6708 8.78039 12.5302C8.92104 12.3895 9.00006 12.1988 9.00006 11.9998V2.56034L12.2198 5.78009C12.3613 5.91671 12.5507 5.9923 12.7474 5.99059C12.944 5.98889 13.1321 5.91001 13.2712 5.77095C13.4102 5.6319 13.4891 5.44379 13.4908 5.24714C13.4925 5.05049 13.4169 4.86104 13.2803 4.71959L8.78031 0.21959C8.63967 0.0789866 8.44893 0 8.25006 0C8.05119 0 7.86046 0.0789866 7.71981 0.21959L3.21981 4.71959C3.08319 4.86104 3.0076 5.05049 3.00931 5.24714C3.01101 5.44379 3.08989 5.6319 3.22895 5.77095C3.368 5.91001 3.55611 5.98889 3.75276 5.99059C3.94941 5.9923 4.13886 5.91671 4.28031 5.78009Z" fill="#666666"/>
</svg>
